<svg width="12" height="12" viewBox="0 0 12 12" fill="none" xmlns="http://www.w3.org/2000/svg">
<path d="M6 8.5C5.87236 8.49936 5.74646 8.47031 5.63143 8.41496C5.51641 8.35961 5.41515 8.27935 5.335 8.18L3.23 5.63C3.107 5.47648 3.0296 5.2915 3.00661 5.09613C2.98363 4.90077 3.01599 4.70287 3.1 4.525C3.16814 4.37041 3.27934 4.23871 3.42031 4.14561C3.56129 4.05252 3.72608 4.00197 3.895 4H8.105C8.27393 4.00197 8.43872 4.05252 8.5797 4.14561C8.72067 4.23871 8.83186 4.37041 8.9 4.525C8.98402 4.70287 9.01638 4.90077 8.9934 5.09613C8.97041 5.2915 8.89301 5.47648 8.77 5.63L6.665 8.18C6.58486 8.27935 6.4836 8.35961 6.36857 8.41496C6.25355 8.47031 6.12765 8.49936 6 8.5Z" fill="black"/>
</svg>
