<svg width="12" height="12" viewBox="0 0 12 12" fill="none" xmlns="http://www.w3.org/2000/svg">
<path d="M6 0.999512C8.762 0.999512 11.001 3.23851 11.001 6.00051C11.001 8.76201 8.762 11.001 6 11.001C3.238 11.001 0.999001 8.76201 0.999001 6.00051C0.999001 3.23851 3.238 0.999512 6 0.999512ZM6 1.74951C5.4379 1.74342 4.88018 1.84886 4.35911 2.05975C3.83804 2.27063 3.36397 2.58277 2.96433 2.9781C2.5647 3.37342 2.24744 3.84408 2.03091 4.36283C1.81439 4.88159 1.7029 5.43813 1.7029 6.00026C1.7029 6.56239 1.81439 7.11894 2.03091 7.63769C2.24744 8.15645 2.5647 8.6271 2.96433 9.02243C3.36397 9.41775 3.83804 9.72989 4.35911 9.94078C4.88018 10.1517 5.4379 10.2571 6 10.251C7.11601 10.2339 8.18052 9.77854 8.96368 8.98328C9.74683 8.18802 10.1858 7.11665 10.1858 6.00051C10.1858 4.88437 9.74683 3.813 8.96368 3.01774C8.18052 2.22248 7.11601 1.76663 6 1.74951ZM5.998 3.00001C6.79339 3.00001 7.55619 3.31598 8.11861 3.8784C8.68104 4.44082 8.997 5.20363 8.997 5.99901C8.997 6.7944 8.68104 7.5572 8.11861 8.11963C7.55619 8.68205 6.79339 8.99801 5.998 8.99801C5.20262 8.99801 4.43981 8.68205 3.87739 8.11963C3.31497 7.5572 2.999 6.7944 2.999 5.99901C2.999 5.20363 3.31497 4.44082 3.87739 3.8784C4.43981 3.31598 5.20262 3.00001 5.998 3.00001Z" fill="#9E00B7"/>
</svg>
