<svg width="12" height="12" viewBox="0 0 12 12" fill="none" xmlns="http://www.w3.org/2000/svg">
<path d="M6 11.001C8.762 11.001 11.001 8.76201 11.001 6.00051C11.001 3.23851 8.762 0.999512 6 0.999512C3.238 0.999512 0.999001 3.23851 0.999001 6.00051C0.999001 8.76201 3.238 11.001 6 11.001ZM6 10.251C5.43633 10.2597 4.87657 10.1561 4.3533 9.94638C3.83003 9.73665 3.3537 9.42494 2.95203 9.02939C2.55037 8.63383 2.23139 8.16234 2.01366 7.64235C1.79593 7.12235 1.6838 6.56425 1.6838 6.00051C1.6838 5.43678 1.79593 4.87867 2.01366 4.35868C2.23139 3.83868 2.55037 3.36719 2.95203 2.97164C3.3537 2.57608 3.83003 2.26437 4.3533 2.05465C4.87657 1.84492 5.43633 1.74137 6 1.75001C7.11938 1.76215 8.1888 2.21534 8.97606 3.01119C9.76333 3.80705 10.2049 4.88131 10.2049 6.00076C10.2049 7.12021 9.76333 8.19448 8.97606 8.99033C8.1888 9.78618 7.11938 10.2389 6 10.251Z" fill="#9E00B7"/>
</svg>
